<svg xmlns="http://www.w3.org/2000/svg" width="1200" height="620" viewBox="0 0 1200 620" role="img" aria-labelledby="title desc">
  <title id="title">JoyBoy screenshot placeholder</title>
  <desc id="desc">Placeholder image for a JoyBoy product screenshot or demo GIF.</desc>
  <defs>
    <linearGradient id="bg" x1="0" x2="1" y1="0" y2="1">
      <stop offset="0" stop-color="#06080d"/>
      <stop offset="0.58" stop-color="#0b111d"/>
      <stop offset="1" stop-color="#101827"/>
    </linearGradient>
    <linearGradient id="accent" x1="0" x2="1">
      <stop offset="0" stop-color="#4f8cff"/>
      <stop offset="1" stop-color="#56f0c2"/>
    </linearGradient>
  </defs>
  <rect width="1200" height="620" rx="36" fill="url(#bg)"/>
  <g opacity="0.36">
    <circle cx="120" cy="105" r="2" fill="#fff"/>
    <circle cx="260" cy="76" r="1.5" fill="#fff"/>
    <circle cx="1018" cy="142" r="2" fill="#fff"/>
    <circle cx="1100" cy="472" r="1.7" fill="#fff"/>
    <circle cx="678" cy="86" r="1.4" fill="#fff"/>
    <circle cx="886" cy="510" r="1.6" fill="#fff"/>
    <circle cx="168" cy="488" r="1.2" fill="#fff"/>
  </g>
  <rect x="78" y="74" width="250" height="472" rx="24" fill="#0d121b" stroke="#1e293b"/>
  <rect x="110" y="112" width="164" height="36" rx="18" fill="#151d2a"/>
  <rect x="110" y="180" width="178" height="20" rx="10" fill="#253044"/>
  <rect x="110" y="218" width="142" height="18" rx="9" fill="#1a2333"/>
  <rect x="110" y="286" width="184" height="54" rx="14" fill="#101d33" stroke="#24477c"/>
  <rect x="110" y="366" width="148" height="18" rx="9" fill="#1a2333"/>
  <rect x="110" y="404" width="170" height="18" rx="9" fill="#1a2333"/>
  <rect x="378" y="74" width="744" height="472" rx="28" fill="#0a0f18" stroke="#1e293b"/>
  <rect x="434" y="126" width="420" height="44" rx="22" fill="#141b28"/>
  <rect x="434" y="218" width="288" height="144" rx="22" fill="#111827" stroke="#243348"/>
  <rect x="752" y="218" width="288" height="144" rx="22" fill="#111827" stroke="#243348"/>
  <rect x="434" y="390" width="606" height="66" rx="24" fill="#111827" stroke="#243348"/>
  <rect x="464" y="414" width="420" height="18" rx="9" fill="#253044"/>
  <rect x="908" y="410" width="80" height="28" rx="14" fill="url(#accent)"/>
  <text x="600" y="586" text-anchor="middle" fill="#8ea0b8" font-family="Inter, Arial, sans-serif" font-size="24">
    TODO: replace with JoyBoy screenshot or GIF
  </text>
</svg>
